# xmcd
# 
# Track frame offsets:
#     150
#     13412
#     29337
#     39312
#     50912
#     60787
#     73487
#     91237
#     103587
#     113637
#     124350
#     137462
#     149412
#     162475
#     172300
#     185287
#     198512
#     209137
#     220500
#     231562
#     243150
#     256512
#     264775
#     277375
#     291612
#     305037
# 
# Disc length: 4200
# 
# Revision: 1
# Processed by: cddbd v1.5.2PL0 Copyright (c) Steve Scherf et al.
# Submitted via: fre:ac v1.0.17
# 
DISCID=9d10661a
DTITLE=Lynn Anderson - Rose Garden-You're My Man
DYEAR=1997
DGENRE=Country
TTITLE0=Rose Garden
TTITLE1=For The Good Times
TTITLE2=Another Lonely Night
TTITLE3=I Don't Want To Play House
TTITLE4=Snowbird
TTITLE5=Your Sweet Love Lifted Me
TTITLE6=Sunday Morning Coming Down
TTITLE7=I Still Belong To You
TTITLE8=I Wish I Was A Little Boy Again
TTITLE9=It's Only Make Believe
TTITLE10=Nothing Between Us
TTITLE11=You're My Man
TTITLE12=I Can Spot A Cheater
TTITLE13=I'm Gonna Write A Song
TTITLE14=Cry, Cry Again
TTITLE15=Knock Three Times
TTITLE16=Flying Machine
TTITLE17=Proud Mary
TTITLE18=Help Me Make It Through The Night
TTITLE19=Put Your Hand In The Hand
TTITLE20=Joy To The World
TTITLE21=I Might As Well Be Here Alone
TTITLE22=How Can I Unlove You (Bonus Track)
TTITLE23=Cry (Bonus Track)
TTITLE24=Top Of The World (Bonus Track)
TTITLE25=What A Man, My Man Is (Bonus Track)
EXTD=
EXTT0=
EXTT1=
EXTT2=
EXTT3=
EXTT4=
EXTT5=
EXTT6=
EXTT7=
EXTT8=
EXTT9=
EXTT10=
EXTT11=
EXTT12=
EXTT13=
EXTT14=
EXTT15=
EXTT16=
EXTT17=
EXTT18=
EXTT19=
EXTT20=
EXTT21=
EXTT22=
EXTT23=
EXTT24=
EXTT25=
PLAYORDER=
